<svg height="32" width="32" xml:space="preserve" xmlns="http://www.w3.org/2000/svg"><path fill="none" d="M0 0h32v32H0z"/><path d="M30 17.349V12h-2v-2h2V2H2v8h2v2H2v8h2v2H2v8h15.349A8.97 8.97 0 0 0 23 32a9.002 9.002 0 0 0 9-9 8.968 8.968 0 0 0-2-5.651zM14.059 22H6v-2h8.522a8.932 8.932 0 0 0-.463 2zM26 12H6v-2h20v2zM4 6h4v2H4V6zm0 10h4v2H4v-2zm4 12H4v-2h4v2zm15 1.883A6.898 6.898 0 0 1 16.115 23 6.898 6.898 0 0 1 23 16.115 6.898 6.898 0 0 1 29.883 23 6.898 6.898 0 0 1 23 29.883z"/><path d="m19 25 2 2 2-2 2 2 2-2-2-2 2-2-2-2-2 2-2-2-2 2 2 2z"/></svg>